<svg xmlns="http://www.w3.org/2000/svg" width="1240" height="590" viewBox="0 0 1240 590">
<rect width="100%" height="100%" fill="white"/>
<style>text{font-family:Arial,sans-serif;fill:#191919}.axis{stroke:#333;stroke-width:1}.grid{stroke:#ddd;stroke-width:1}.tick{font-size:13px}.label{font-size:16px}.legend{font-size:13px}.direct{fill:none;stroke:#111;stroke-width:3}.modular{fill:none;stroke:#2754b8;stroke-width:2.5;stroke-dasharray:8 4}.residual{fill:none;stroke:#b23a48;stroke-width:2.5}</style>
<text x="620" y="29" text-anchor="middle" font-size="21">NS–NS torus one-point modularity at ĉ=9</text>
<text x="620" y="55" text-anchor="middle" font-size="14">direct functional c-recursion, order 14; τ=0.2+iy; no q-series cutoff</text>
<text x="340.0" y="90" text-anchor="middle" class="label">Independent modular frames</text>
<line x1="90" y1="427.072" x2="590" y2="427.072" class="grid"/>
<text x="80" y="431.072" text-anchor="end" class="tick">0.045</text>
<line x1="90" y1="374.378" x2="590" y2="374.378" class="grid"/>
<text x="80" y="378.378" text-anchor="end" class="tick">0.05</text>
<line x1="90" y1="321.683" x2="590" y2="321.683" class="grid"/>
<text x="80" y="325.683" text-anchor="end" class="tick">0.055</text>
<line x1="90" y1="268.989" x2="590" y2="268.989" class="grid"/>
<text x="80" y="272.989" text-anchor="end" class="tick">0.06</text>
<line x1="90" y1="216.295" x2="590" y2="216.295" class="grid"/>
<text x="80" y="220.295" text-anchor="end" class="tick">0.065</text>
<line x1="90" y1="163.600" x2="590" y2="163.600" class="grid"/>
<text x="80" y="167.600" text-anchor="end" class="tick">0.07</text>
<line x1="90" y1="110.906" x2="590" y2="110.906" class="grid"/>
<text x="80" y="114.906" text-anchor="end" class="tick">0.075</text>
<line x1="90.000" y1="108" x2="90.000" y2="458" class="grid"/>
<text x="90.000" y="481" text-anchor="middle" class="tick">0.65</text>
<line x1="135.455" y1="108" x2="135.455" y2="458" class="grid"/>
<text x="135.455" y="481" text-anchor="middle" class="tick">0.70</text>
<line x1="180.909" y1="108" x2="180.909" y2="458" class="grid"/>
<text x="180.909" y="481" text-anchor="middle" class="tick">0.75</text>
<line x1="226.364" y1="108" x2="226.364" y2="458" class="grid"/>
<text x="226.364" y="481" text-anchor="middle" class="tick">0.80</text>
<line x1="271.818" y1="108" x2="271.818" y2="458" class="grid"/>
<text x="271.818" y="481" text-anchor="middle" class="tick">0.85</text>
<line x1="317.273" y1="108" x2="317.273" y2="458" class="grid"/>
<text x="317.273" y="481" text-anchor="middle" class="tick">0.90</text>
<line x1="362.727" y1="108" x2="362.727" y2="458" class="grid"/>
<text x="362.727" y="481" text-anchor="middle" class="tick">0.95</text>
<line x1="408.182" y1="108" x2="408.182" y2="458" class="grid"/>
<text x="408.182" y="481" text-anchor="middle" class="tick">1.00</text>
<line x1="453.636" y1="108" x2="453.636" y2="458" class="grid"/>
<text x="453.636" y="481" text-anchor="middle" class="tick">1.05</text>
<line x1="499.091" y1="108" x2="499.091" y2="458" class="grid"/>
<text x="499.091" y="481" text-anchor="middle" class="tick">1.10</text>
<line x1="544.545" y1="108" x2="544.545" y2="458" class="grid"/>
<text x="544.545" y="481" text-anchor="middle" class="tick">1.15</text>
<line x1="590.000" y1="108" x2="590.000" y2="458" class="grid"/>
<text x="590.000" y="481" text-anchor="middle" class="tick">1.20</text>
<line x1="90" y1="458" x2="590" y2="458" class="axis"/>
<line x1="90" y1="108" x2="90" y2="458" class="axis"/>
<text x="340.0" y="511" text-anchor="middle" class="label">Im τ</text>
<path d="M90.000,166.765 L180.909,248.408 L271.818,304.323 L317.273,325.653 L408.182,358.792 L499.091,382.455 L590.000,399.235" class="direct"/>
<path d="M90.000,166.765 L180.909,248.408 L271.818,304.323 L317.273,325.653 L408.182,358.792 L499.091,382.455 L590.000,399.235" class="modular"/>
<text x="950.0" y="90" text-anchor="middle" class="label">Signed relative modular residual</text>
<line x1="700" y1="423.134" x2="1200" y2="423.134" class="grid"/>
<text x="690" y="427.134" text-anchor="end" class="tick">-2.0e-14</text>
<line x1="700" y1="388.100" x2="1200" y2="388.100" class="grid"/>
<text x="690" y="392.100" text-anchor="end" class="tick">-1.5e-14</text>
<line x1="700" y1="353.067" x2="1200" y2="353.067" class="grid"/>
<text x="690" y="357.067" text-anchor="end" class="tick">-1.0e-14</text>
<line x1="700" y1="318.033" x2="1200" y2="318.033" class="grid"/>
<text x="690" y="322.033" text-anchor="end" class="tick">-5.0e-15</text>
<line x1="700" y1="283.000" x2="1200" y2="283.000" class="grid"/>
<text x="690" y="287.000" text-anchor="end" class="tick">0.0e+00</text>
<line x1="700" y1="247.967" x2="1200" y2="247.967" class="grid"/>
<text x="690" y="251.967" text-anchor="end" class="tick">5.0e-15</text>
<line x1="700" y1="212.933" x2="1200" y2="212.933" class="grid"/>
<text x="690" y="216.933" text-anchor="end" class="tick">1.0e-14</text>
<line x1="700" y1="177.900" x2="1200" y2="177.900" class="grid"/>
<text x="690" y="181.900" text-anchor="end" class="tick">1.5e-14</text>
<line x1="700" y1="142.866" x2="1200" y2="142.866" class="grid"/>
<text x="690" y="146.866" text-anchor="end" class="tick">2.0e-14</text>
<line x1="700.000" y1="108" x2="700.000" y2="458" class="grid"/>
<text x="700.000" y="481" text-anchor="middle" class="tick">0.65</text>
<line x1="745.455" y1="108" x2="745.455" y2="458" class="grid"/>
<text x="745.455" y="481" text-anchor="middle" class="tick">0.70</text>
<line x1="790.909" y1="108" x2="790.909" y2="458" class="grid"/>
<text x="790.909" y="481" text-anchor="middle" class="tick">0.75</text>
<line x1="836.364" y1="108" x2="836.364" y2="458" class="grid"/>
<text x="836.364" y="481" text-anchor="middle" class="tick">0.80</text>
<line x1="881.818" y1="108" x2="881.818" y2="458" class="grid"/>
<text x="881.818" y="481" text-anchor="middle" class="tick">0.85</text>
<line x1="927.273" y1="108" x2="927.273" y2="458" class="grid"/>
<text x="927.273" y="481" text-anchor="middle" class="tick">0.90</text>
<line x1="972.727" y1="108" x2="972.727" y2="458" class="grid"/>
<text x="972.727" y="481" text-anchor="middle" class="tick">0.95</text>
<line x1="1018.182" y1="108" x2="1018.182" y2="458" class="grid"/>
<text x="1018.182" y="481" text-anchor="middle" class="tick">1.00</text>
<line x1="1063.636" y1="108" x2="1063.636" y2="458" class="grid"/>
<text x="1063.636" y="481" text-anchor="middle" class="tick">1.05</text>
<line x1="1109.091" y1="108" x2="1109.091" y2="458" class="grid"/>
<text x="1109.091" y="481" text-anchor="middle" class="tick">1.10</text>
<line x1="1154.545" y1="108" x2="1154.545" y2="458" class="grid"/>
<text x="1154.545" y="481" text-anchor="middle" class="tick">1.15</text>
<line x1="1200.000" y1="108" x2="1200.000" y2="458" class="grid"/>
<text x="1200.000" y="481" text-anchor="middle" class="tick">1.20</text>
<line x1="700" y1="458" x2="1200" y2="458" class="axis"/>
<line x1="700" y1="108" x2="700" y2="458" class="axis"/>
<text x="950.0" y="511" text-anchor="middle" class="label">Im τ</text>
<line x1="700" y1="283.000" x2="1200" y2="283.000" class="axis"/>
<path d="M700.000,439.250 L790.909,288.493 L881.818,284.717 L927.273,283.890 L1018.182,283.000 L1109.091,281.025 L1200.000,280.959" class="residual"/>
<line x1="260" y1="563" x2="284" y2="563" stroke="#111" stroke-width="3"/>
<text x="291" y="568" class="legend">G_NS(τ)</text>
<line x1="545" y1="563" x2="569" y2="563" stroke="#2754b8" stroke-width="3" stroke-dasharray="8 4"/>
<text x="576" y="568" class="legend">|τ|⁻²ᵈ G_NS(−1/τ)</text>
<line x1="830" y1="563" x2="854" y2="563" stroke="#b23a48" stroke-width="3"/>
<text x="861" y="568" class="legend">signed residual</text>
</svg>
