<svg xmlns="http://www.w3.org/2000/svg" width="1120" height="720" viewBox="0 0 1120 720">
<rect width="100%" height="100%" fill="white"/>
<style>text{font-family:Arial,sans-serif;fill:#1d1d1f}.grid{stroke:#dedede;stroke-width:1}.axis{stroke:#333;stroke-width:1.2}.ns{fill:none;stroke:#171717;stroke-width:3}.rr{fill:none;stroke:#3159bd;stroke-width:2.2;stroke-dasharray:8 5}.diff{fill:none;stroke:#9b3b73;stroke-width:2}.tick{font-size:13px}.label{font-size:15px}.legend{font-size:14px}</style>
<text x="560" y="30" text-anchor="middle" font-size="20">NSNSRR sphere correlator in two crossing channels</text>
<text x="560" y="56" text-anchor="middle" font-size="14">P₁ᴿ=0.2, P₂ᴿ=0.4, P₃ᴺˢ=0.3, P₄ᴺˢ=0.3; recursion order 10, Nₚ=24, P≤5; symmetric ε=±0.0001</text>
<line x1="148.611" y1="105.0" x2="148.611" y2="650.0" class="grid"/>
<text x="148.611" y="674.0" text-anchor="middle" class="tick">0.1</text>
<line x1="363.056" y1="105.0" x2="363.056" y2="650.0" class="grid"/>
<text x="363.056" y="674.0" text-anchor="middle" class="tick">0.3</text>
<line x1="577.500" y1="105.0" x2="577.500" y2="650.0" class="grid"/>
<text x="577.500" y="674.0" text-anchor="middle" class="tick">0.5</text>
<line x1="791.944" y1="105.0" x2="791.944" y2="650.0" class="grid"/>
<text x="791.944" y="674.0" text-anchor="middle" class="tick">0.7</text>
<line x1="1006.389" y1="105.0" x2="1006.389" y2="650.0" class="grid"/>
<text x="1006.389" y="674.0" text-anchor="middle" class="tick">0.9</text>
<line x1="95.0" y1="465.000" x2="1060.0" y2="465.000" class="grid"/>
<text x="83.0" y="469.000" text-anchor="end" class="tick">0.117</text>
<line x1="95.0" y1="375.000" x2="1060.0" y2="375.000" class="grid"/>
<text x="83.0" y="379.000" text-anchor="end" class="tick">0.386</text>
<line x1="95.0" y1="285.000" x2="1060.0" y2="285.000" class="grid"/>
<text x="83.0" y="289.000" text-anchor="end" class="tick">0.655</text>
<line x1="95.0" y1="195.000" x2="1060.0" y2="195.000" class="grid"/>
<text x="83.0" y="199.000" text-anchor="end" class="tick">0.924</text>
<line x1="95.0" y1="105.000" x2="1060.0" y2="105.000" class="grid"/>
<text x="83.0" y="109.000" text-anchor="end" class="tick">1.193</text>
<line x1="95.0" y1="650.000" x2="1060.0" y2="650.000" class="grid"/>
<text x="83.0" y="654.000" text-anchor="end" class="tick">-0.12</text>
<line x1="95.0" y1="587.500" x2="1060.0" y2="587.500" class="grid"/>
<text x="83.0" y="591.500" text-anchor="end" class="tick">0.00</text>
<line x1="95.0" y1="525.000" x2="1060.0" y2="525.000" class="grid"/>
<text x="83.0" y="529.000" text-anchor="end" class="tick">0.12</text>
<polyline points="95.000,118.333 121.806,258.641 148.611,323.831 175.417,360.926 202.222,384.616 229.028,400.908 255.833,412.700 282.639,421.550 309.444,428.373 336.250,433.733 363.056,438.000 389.861,441.423 416.667,444.177 443.472,446.383 470.278,448.131 497.083,449.484 523.889,450.488 550.694,451.175 577.500,451.565 604.306,451.667 631.111,451.482 657.917,451.002 684.722,450.209 711.528,449.071 738.333,447.544 765.139,445.565 791.944,443.041 818.750,439.846 845.556,435.796 872.361,430.619 899.167,423.901 925.972,414.983 952.778,402.749 979.583,385.158 1006.389,358.052 1033.194,311.491 1060.000,214.648" class="ns"/>
<polyline points="95.000,118.333 121.806,258.641 148.611,323.831 175.417,360.926 202.222,384.616 229.028,400.908 255.833,412.700 282.639,421.550 309.444,428.373 336.250,433.733 363.056,438.000 389.861,441.423 416.667,444.177 443.472,446.383 470.278,448.131 497.083,449.484 523.889,450.488 550.694,451.175 577.500,451.565 604.306,451.667 631.111,451.482 657.917,451.002 684.722,450.209 711.528,449.071 738.333,447.544 765.139,445.565 791.944,443.041 818.750,439.846 845.556,435.796 872.361,430.619 899.167,423.901 925.972,414.983 952.778,402.749 979.583,385.158 1006.389,358.052 1033.194,311.491 1060.000,214.648" class="rr"/>
<polyline points="95.000,645.370 121.806,594.316 148.611,575.206 175.417,567.778 202.222,565.359 229.028,565.259 255.833,566.260 282.639,567.771 309.444,569.490 336.250,571.262 363.056,573.007 389.861,574.686 416.667,576.284 443.472,577.796 470.278,579.228 497.083,580.587 523.889,581.884 550.694,583.131 577.500,584.340 604.306,585.524 631.111,586.698 657.917,587.874 684.722,589.067 711.528,590.290 738.333,591.556 765.139,592.879 791.944,594.270 818.750,595.738 845.556,597.285 872.361,598.903 899.167,600.565 925.972,602.203 952.778,603.673 979.583,604.683 1006.389,604.622 1033.194,602.166 1060.000,593.941" class="diff"/>
<line x1="95.0" y1="465.0" x2="1060.0" y2="465.0" class="axis"/>
<line x1="95.0" y1="105.0" x2="95.0" y2="465.0" class="axis"/>
<line x1="95.0" y1="650.0" x2="1060.0" y2="650.0" class="axis"/>
<line x1="95.0" y1="525.0" x2="95.0" y2="650.0" class="axis"/>
<line x1="740" y1="81" x2="780" y2="81" class="ns"/>
<text x="790" y="86" class="legend">NS exchange at z</text>
<line x1="895" y1="81" x2="935" y2="81" class="rr"/>
<text x="945" y="86" class="legend">R exchange at 1−z</text>
<text x="28" y="285.0" transform="rotate(-90 28 285)" text-anchor="middle" class="label">𝒢(z)</text>
<text x="28" y="587.5" transform="rotate(-90 28 587.5)" text-anchor="middle" class="label">10⁶(𝒢ᴿ−𝒢ᴺˢ)/𝒢ᴺˢ</text>
<text x="577.5" y="700" text-anchor="middle" class="label">z</text>
</svg>