<svg xmlns="http://www.w3.org/2000/svg" width="1160" height="675" viewBox="0 0 1160 675">
<rect width="1160" height="675" fill="white"/><g font-family="Arial,sans-serif" fill="#253044">
<text x="70" y="36" font-size="23" text-anchor="start">Corrected NSRR toy — a diagonal sewing diagnostic, not physical Z or Q</text>
<text x="70" y="65" font-size="15" text-anchor="start">b=1.4; 35 momentum nodes; branching recursion x two Virasoro c-recursions; zero PBW production calls</text>
<text x="125" y="126" font-size="17" text-anchor="start">D = weighted squared-block sum</text>
<path d="M 125 483.0 h 390" stroke="#e1e6ee"/>
<text x="116" y="487.0" font-size="12" text-anchor="end">1.317e-09</text>
<path d="M 125 400.5 h 390" stroke="#e1e6ee"/>
<text x="116" y="404.5" font-size="12" text-anchor="end">1.471e-09</text>
<path d="M 125 317.99999999999994 h 390" stroke="#e1e6ee"/>
<text x="116" y="321.99999999999994" font-size="12" text-anchor="end">1.625e-09</text>
<path d="M 125 235.49999999999997 h 390" stroke="#e1e6ee"/>
<text x="116" y="239.49999999999997" font-size="12" text-anchor="end">1.780e-09</text>
<path d="M 125 153.0 h 390" stroke="#e1e6ee"/>
<text x="116" y="157.0" font-size="12" text-anchor="end">1.934e-09</text>
<text x="125.0" y="507" font-size="13" text-anchor="middle">0.52</text>
<text x="222.50000000000009" y="507" font-size="13" text-anchor="middle">0.56</text>
<text x="319.9999999999999" y="507" font-size="13" text-anchor="middle">0.60</text>
<text x="417.5" y="507" font-size="13" text-anchor="middle">0.64</text>
<text x="515.0" y="507" font-size="13" text-anchor="middle">0.68</text>
<polyline points="125.000,175.759 222.500,203.908 320.000,255.562 417.500,323.007 515.000,397.713" fill="none" stroke="#888888" stroke-width="2.4"/>
<path d="M 125 543 h 24" stroke="#888888" stroke-width="3"/>
<text x="155" y="547" font-size="13" text-anchor="start">N=3, L=0</text>
<polyline points="125.000,295.899 222.500,313.044 320.000,345.053 417.500,387.982 515.000,437.168" fill="none" stroke="#d67a20" stroke-width="2.4"/>
<path d="M 325 543 h 24" stroke="#d67a20" stroke-width="3"/>
<text x="355" y="547" font-size="13" text-anchor="start">N=3, L=1</text>
<polyline points="125.000,280.516 222.500,299.421 320.000,334.327 417.500,380.381 515.000,432.143" fill="none" stroke="#176dad" stroke-width="2.4"/>
<path d="M 125 568 h 24" stroke="#176dad" stroke-width="3"/>
<text x="155" y="572" font-size="13" text-anchor="start">N=3, L=2</text>
<polyline points="125.000,316.360 222.500,334.303 320.000,367.430 417.500,411.129 515.000,460.241" fill="none" stroke="#75459b" stroke-width="2.4" stroke-dasharray="6 4"/>
<path d="M 325 568 h 24" stroke="#75459b" stroke-width="3" stroke-dasharray="6 4"/>
<text x="355" y="572" font-size="13" text-anchor="start">N=2, L=2</text>
<text x="320.0" y="529" font-size="14" text-anchor="middle">t = Re Omega_original,12</text>
<text x="675" y="126" font-size="17" text-anchor="start">Parity channels exchange under lift changes</text>
<path d="M 700 483.0 h 370" stroke="#e1e6ee"/>
<text x="691" y="487.0" font-size="12" text-anchor="end">0.00e+00</text>
<path d="M 700 400.5 h 370" stroke="#e1e6ee"/>
<text x="691" y="404.5" font-size="12" text-anchor="end">4.30e-10</text>
<path d="M 700 318.0 h 370" stroke="#e1e6ee"/>
<text x="691" y="322.0" font-size="12" text-anchor="end">8.60e-10</text>
<path d="M 700 235.5 h 370" stroke="#e1e6ee"/>
<text x="691" y="239.5" font-size="12" text-anchor="end">1.29e-09</text>
<path d="M 700 153.0 h 370" stroke="#e1e6ee"/>
<text x="691" y="157.0" font-size="12" text-anchor="end">1.72e-09</text>
<rect x="720.25" y="177.44444444444446" width="24" height="305.55555555555554" fill="#176dad"/>
<rect x="747.25" y="482.40049387817913" width="24" height="0.599506121820869" fill="#d67a20"/>
<text x="746.25" y="508" font-size="13" text-anchor="middle">(1, 1)</text>
<rect x="812.75" y="482.40049387817913" width="24" height="0.599506121820869" fill="#176dad"/>
<rect x="839.75" y="177.44444444444446" width="24" height="305.55555555555554" fill="#d67a20"/>
<text x="838.75" y="508" font-size="13" text-anchor="middle">(1, -1)</text>
<rect x="905.25" y="482.40049387817913" width="24" height="0.599506121820869" fill="#176dad"/>
<rect x="932.25" y="177.44444444444446" width="24" height="305.55555555555554" fill="#d67a20"/>
<text x="931.25" y="508" font-size="13" text-anchor="middle">(-1, 1)</text>
<rect x="997.75" y="177.44444444444446" width="24" height="305.55555555555554" fill="#176dad"/>
<rect x="1024.75" y="482.40049387817913" width="24" height="0.599506121820869" fill="#d67a20"/>
<text x="1023.75" y="508" font-size="13" text-anchor="middle">(-1, -1)</text>
<text x="885.0" y="531" font-size="14" text-anchor="middle">(R0,R1) lifts; NSinf lift fixed +1</text>
<text x="700" y="558" font-size="14" text-anchor="start">blue: f=0</text>
<text x="865" y="558" font-size="14" text-anchor="start">orange: f=1</text>
<text x="700" y="582" font-size="14" text-anchor="start">t=0.60, N=3, L=2; sums coincide</text>
<text x="70" y="624" font-size="14" text-anchor="start">D sums only eta_left=eta_right channels with a unit diagnostic metric. No Ramond multiplicity or free factor is assumed.</text>
<text x="70" y="649" font-size="14" text-anchor="start">Opposite-HJS blocks and the physical nonchiral contraction remain unresolved; this is not a modular-invariance comparison.</text>
</g></svg>
