<svg xmlns="http://www.w3.org/2000/svg" width="900" height="780" viewBox="0 0 900 780">
<style>text{font-family:-apple-system,BlinkMacSystemFont,'Segoe UI',sans-serif;fill:#222}.small{font-size:12px}.label{font-size:14px}.grid{stroke:#d9dde3;stroke-width:1;opacity:.55}.axis{stroke:#aeb5bf;stroke-width:1}.data{fill:none;stroke:#2f91f8;stroke-width:2}.guide{fill:none;stroke:#777;stroke-width:1.2;stroke-dasharray:3 4}.muted{fill:#737982}</style>
<rect width="100%" height="100%" fill="white"/>
<text x="82.000" y="27.000" text-anchor="start" class="small" font-weight="600">twice-level 12</text>
<line x1="178.000" y1="23.000" x2="198.000" y2="23.000" class="data"/>
<circle cx="207.000" cy="23.000" r="4.00" fill="#2f91f8" stroke="white" stroke-width="1"/>
<text x="218.000" y="27.000" text-anchor="start" class="small">Re τ = 0.20</text>
<line x1="310.000" y1="23.000" x2="330.000" y2="23.000" class="data" stroke-dasharray="5 4"/>
<polygon points="339.000,18.000 344.000,23.000 339.000,28.000 334.000,23.000" fill="#2f91f8" stroke="white" stroke-width="1"/>
<text x="350.000" y="27.000" text-anchor="start" class="small">Re τ = 0.45</text>
<line x1="180.000" y1="54.000" x2="180.000" y2="365.000" class="grid"/>
<text x="180.000" y="385.000" text-anchor="middle" class="small muted">10^−2.5</text>
<line x1="305.000" y1="54.000" x2="305.000" y2="365.000" class="grid"/>
<text x="305.000" y="385.000" text-anchor="middle" class="small muted">10^−2.25</text>
<line x1="430.000" y1="54.000" x2="430.000" y2="365.000" class="grid"/>
<text x="430.000" y="385.000" text-anchor="middle" class="small muted">10^−2</text>
<line x1="555.000" y1="54.000" x2="555.000" y2="365.000" class="grid"/>
<text x="555.000" y="385.000" text-anchor="middle" class="small muted">10^−1.75</text>
<line x1="680.000" y1="54.000" x2="680.000" y2="365.000" class="grid"/>
<text x="680.000" y="385.000" text-anchor="middle" class="small muted">10^−1.5</text>
<line x1="805.000" y1="54.000" x2="805.000" y2="365.000" class="grid"/>
<text x="805.000" y="385.000" text-anchor="middle" class="small muted">10^−1.25</text>
<line x1="105.000" y1="77.037" x2="855.000" y2="77.037" class="grid"/>
<text x="95.000" y="81.037" text-anchor="end" class="small muted">10⁻⁴</text>
<line x1="105.000" y1="123.111" x2="855.000" y2="123.111" class="grid"/>
<text x="95.000" y="127.111" text-anchor="end" class="small muted">10⁻⁶</text>
<line x1="105.000" y1="169.185" x2="855.000" y2="169.185" class="grid"/>
<text x="95.000" y="173.185" text-anchor="end" class="small muted">10⁻⁸</text>
<line x1="105.000" y1="215.259" x2="855.000" y2="215.259" class="grid"/>
<text x="95.000" y="219.259" text-anchor="end" class="small muted">10⁻¹⁰</text>
<line x1="105.000" y1="261.333" x2="855.000" y2="261.333" class="grid"/>
<text x="95.000" y="265.333" text-anchor="end" class="small muted">10⁻¹²</text>
<line x1="105.000" y1="307.407" x2="855.000" y2="307.407" class="grid"/>
<text x="95.000" y="311.407" text-anchor="end" class="small muted">10⁻¹⁴</text>
<line x1="105.000" y1="353.481" x2="855.000" y2="353.481" class="grid"/>
<text x="95.000" y="357.481" text-anchor="end" class="small muted">10⁻¹⁶</text>
<line x1="105.000" y1="365.000" x2="855.000" y2="365.000" class="axis"/>
<line x1="105.000" y1="54.000" x2="105.000" y2="365.000" class="axis"/>
<text x="480.000" y="411.000" text-anchor="middle" class="label">larger nome qₘₐₓ = max(|q|, |q̃|)</text>
<text x="28.000" y="209.500" text-anchor="middle" class="label" transform="rotate(-90 28.000 209.500)">|G(q̃) / (|τ|²ᵈ G(q)) − 1|</text>
<polyline points="133.842,352.435 176.087,334.509 270.280,305.227 323.749,281.822 406.718,264.390 474.937,238.757 543.155,222.909 679.593,181.221 816.031,139.301" class="data"/>
<circle cx="133.842" cy="352.435" r="4.00" fill="#2f91f8" stroke="white" stroke-width="1"/>
<circle cx="176.087" cy="334.509" r="4.00" fill="#2f91f8" stroke="white" stroke-width="1"/>
<circle cx="270.280" cy="305.227" r="4.00" fill="#2f91f8" stroke="white" stroke-width="1"/>
<circle cx="323.749" cy="281.822" r="4.00" fill="#2f91f8" stroke="white" stroke-width="1"/>
<circle cx="406.718" cy="264.390" r="4.00" fill="#2f91f8" stroke="white" stroke-width="1"/>
<circle cx="474.937" cy="238.757" r="4.00" fill="#2f91f8" stroke="white" stroke-width="1"/>
<circle cx="543.155" cy="222.909" r="4.00" fill="#2f91f8" stroke="white" stroke-width="1"/>
<circle cx="679.593" cy="181.221" r="4.00" fill="#2f91f8" stroke="white" stroke-width="1"/>
<circle cx="816.031" cy="139.301" r="4.00" fill="#2f91f8" stroke="white" stroke-width="1"/>
<polyline points="217.221,323.518 256.636,301.171 283.924,292.099 295.383,288.204 311.211,283.774 338.499,275.573 406.718,255.075 433.195,260.039 543.155,214.011 679.593,172.906" class="data" stroke-dasharray="5 4"/>
<polygon points="217.221,318.518 222.221,323.518 217.221,328.518 212.221,323.518" fill="#2f91f8" stroke="white" stroke-width="1"/>
<polygon points="256.636,296.171 261.636,301.171 256.636,306.171 251.636,301.171" fill="#2f91f8" stroke="white" stroke-width="1"/>
<polygon points="283.924,287.099 288.924,292.099 283.924,297.099 278.924,292.099" fill="#2f91f8" stroke="white" stroke-width="1"/>
<polygon points="295.383,283.204 300.383,288.204 295.383,293.204 290.383,288.204" fill="#2f91f8" stroke="white" stroke-width="1"/>
<polygon points="311.211,278.774 316.211,283.774 311.211,288.774 306.211,283.774" fill="#2f91f8" stroke="white" stroke-width="1"/>
<polygon points="338.499,270.573 343.499,275.573 338.499,280.573 333.499,275.573" fill="#2f91f8" stroke="white" stroke-width="1"/>
<polygon points="406.718,250.075 411.718,255.075 406.718,260.075 401.718,255.075" fill="#2f91f8" stroke="white" stroke-width="1"/>
<polygon points="433.195,255.039 438.195,260.039 433.195,265.039 428.195,260.039" fill="#2f91f8" stroke="white" stroke-width="1"/>
<polygon points="543.155,209.011 548.155,214.011 543.155,219.011 538.155,214.011" fill="#2f91f8" stroke="white" stroke-width="1"/>
<polygon points="679.593,167.906 684.593,172.906 679.593,177.906 674.593,172.906" fill="#2f91f8" stroke="white" stroke-width="1"/>
<polyline points="270.280,302.384 379.430,269.887 488.580,237.390 597.730,204.894 706.881,172.397 816.031,139.900" class="guide"/>
<text x="140.000" y="64.367" text-anchor="start" class="small muted">fit 6.4619 (δ &gt; 10⁻¹⁵); expected 6.5</text>
<line x1="126.739" y1="440.000" x2="126.739" y2="700.000" class="grid"/>
<text x="126.739" y="720.000" text-anchor="middle" class="small muted">0.55</text>
<line x1="235.435" y1="440.000" x2="235.435" y2="700.000" class="grid"/>
<text x="235.435" y="720.000" text-anchor="middle" class="small muted">0.65</text>
<line x1="344.130" y1="440.000" x2="344.130" y2="700.000" class="grid"/>
<text x="344.130" y="720.000" text-anchor="middle" class="small muted">0.75</text>
<line x1="452.826" y1="440.000" x2="452.826" y2="700.000" class="grid"/>
<text x="452.826" y="720.000" text-anchor="middle" class="small muted">0.85</text>
<line x1="561.522" y1="440.000" x2="561.522" y2="700.000" class="grid"/>
<text x="561.522" y="720.000" text-anchor="middle" class="small muted">0.95</text>
<line x1="670.217" y1="440.000" x2="670.217" y2="700.000" class="grid"/>
<text x="670.217" y="720.000" text-anchor="middle" class="small muted">1.05</text>
<line x1="778.913" y1="440.000" x2="778.913" y2="700.000" class="grid"/>
<text x="778.913" y="720.000" text-anchor="middle" class="small muted">1.15</text>
<line x1="105.000" y1="459.259" x2="855.000" y2="459.259" class="grid"/>
<text x="95.000" y="463.259" text-anchor="end" class="small muted">10⁻⁴</text>
<line x1="105.000" y1="497.778" x2="855.000" y2="497.778" class="grid"/>
<text x="95.000" y="501.778" text-anchor="end" class="small muted">10⁻⁶</text>
<line x1="105.000" y1="536.296" x2="855.000" y2="536.296" class="grid"/>
<text x="95.000" y="540.296" text-anchor="end" class="small muted">10⁻⁸</text>
<line x1="105.000" y1="574.815" x2="855.000" y2="574.815" class="grid"/>
<text x="95.000" y="578.815" text-anchor="end" class="small muted">10⁻¹⁰</text>
<line x1="105.000" y1="613.333" x2="855.000" y2="613.333" class="grid"/>
<text x="95.000" y="617.333" text-anchor="end" class="small muted">10⁻¹²</text>
<line x1="105.000" y1="651.852" x2="855.000" y2="651.852" class="grid"/>
<text x="95.000" y="655.852" text-anchor="end" class="small muted">10⁻¹⁴</text>
<line x1="105.000" y1="690.370" x2="855.000" y2="690.370" class="grid"/>
<text x="95.000" y="694.370" text-anchor="end" class="small muted">10⁻¹⁶</text>
<line x1="105.000" y1="700.000" x2="855.000" y2="700.000" class="axis"/>
<line x1="105.000" y1="440.000" x2="105.000" y2="700.000" class="axis"/>
<polyline points="126.739,539.407 235.435,573.772 344.130,608.102 398.478,625.238 420.217,632.094 441.957,639.054 463.696,646.638 507.174,665.320 615.870,635.798 833.261,612.251" class="data"/>
<circle cx="126.739" cy="539.407" r="4.00" fill="#2f91f8" stroke="white" stroke-width="1"/>
<circle cx="235.435" cy="573.772" r="4.00" fill="#2f91f8" stroke="white" stroke-width="1"/>
<circle cx="344.130" cy="608.102" r="4.00" fill="#2f91f8" stroke="white" stroke-width="1"/>
<circle cx="398.478" cy="625.238" r="4.00" fill="#2f91f8" stroke="white" stroke-width="1"/>
<circle cx="420.217" cy="632.094" r="4.00" fill="#2f91f8" stroke="white" stroke-width="1"/>
<circle cx="441.957" cy="639.054" r="4.00" fill="#2f91f8" stroke="white" stroke-width="1"/>
<circle cx="463.696" cy="646.638" r="4.00" fill="#2f91f8" stroke="white" stroke-width="1"/>
<circle cx="507.174" cy="665.320" r="4.00" fill="#2f91f8" stroke="white" stroke-width="1"/>
<circle cx="615.870" cy="635.798" r="4.00" fill="#2f91f8" stroke="white" stroke-width="1"/>
<circle cx="833.261" cy="612.251" r="4.00" fill="#2f91f8" stroke="white" stroke-width="1"/>
<line x1="436.701" y1="440.000" x2="436.701" y2="700.000" class="guide" stroke-dasharray="4 4"/>
<text x="428.701" y="456.000" text-anchor="end" class="small muted">q̃ lift −1</text>
<text x="444.701" y="456.000" text-anchor="start" class="small muted">q̃ lift +1</text>
<text x="480.000" y="746.000" text-anchor="middle" class="label">Im τ at fixed Re τ = 0.45</text>
<text x="28.000" y="570.000" text-anchor="middle" class="label" transform="rotate(-90 28.000 570.000)">modular residual</text>
</svg>
