<svg xmlns="http://www.w3.org/2000/svg" width="1100" height="1000" viewBox="0 0 1100 1000">
<rect width="1100" height="1000" fill="white"/><g font-family="Arial,sans-serif" fill="#20242b">
<text x="90" y="35" font-size="22" text-anchor="start">All-NS c-recursion convergence: fixed geometry and NSRR answer</text>
<text x="90" y="61" font-size="14" text-anchor="start">b=1.4; N=5; R = accumulated null twice-level; global blocks resummed</text>
<text x="125" y="97" font-size="17" text-anchor="start">Q versus source period coordinate</text>
<path d="M 125 310.0 h 645" stroke="#e2e5e9"/>
<text x="113" y="315.0" font-size="12" text-anchor="end">1.72e-07</text>
<path d="M 125 261.25 h 645" stroke="#e2e5e9"/>
<text x="113" y="266.25" font-size="12" text-anchor="end">2.529e-07</text>
<path d="M 125 212.5 h 645" stroke="#e2e5e9"/>
<text x="113" y="217.5" font-size="12" text-anchor="end">3.337e-07</text>
<path d="M 125 163.75000000000003 h 645" stroke="#e2e5e9"/>
<text x="113" y="168.75000000000003" font-size="12" text-anchor="end">4.146e-07</text>
<path d="M 125 115.0 h 645" stroke="#e2e5e9"/>
<text x="113" y="120.0" font-size="12" text-anchor="end">4.954e-07</text>
<text x="125.0" y="331" font-size="12" text-anchor="middle">0.52</text>
<text x="286.2500000000001" y="331" font-size="12" text-anchor="middle">0.56</text>
<text x="447.4999999999998" y="331" font-size="12" text-anchor="middle">0.60</text>
<text x="608.7499999999998" y="331" font-size="12" text-anchor="middle">0.64</text>
<text x="770.0" y="331" font-size="12" text-anchor="middle">0.68</text>
<polyline points="125.000,131.250 286.250,185.461 447.500,228.922 608.750,264.427 770.000,293.750" fill="none" stroke="#ba432f" stroke-width="2"/>
<circle cx="125.0" cy="131.25" r="3" fill="#ba432f"/>
<circle cx="286.2500000000001" cy="185.46067877887072" r="3" fill="#ba432f"/>
<circle cx="447.4999999999998" cy="228.92214010267787" r="3" fill="#ba432f"/>
<circle cx="608.7499999999998" cy="264.4266652809459" r="3" fill="#ba432f"/>
<circle cx="770.0" cy="293.75" r="3" fill="#ba432f"/>
<text x="820" y="135" font-size="13" text-anchor="start">NSRR fixed L=4</text>
<polyline points="125.000,190.681 286.250,202.341 447.500,223.572 608.750,250.552 770.000,279.162" fill="none" stroke="#777777" stroke-width="2" stroke-dasharray="7 4"/>
<circle cx="125.0" cy="190.68118787607693" r="3" fill="#777777"/>
<circle cx="286.2500000000001" cy="202.34133090301094" r="3" fill="#777777"/>
<circle cx="447.4999999999998" cy="223.57162626198638" r="3" fill="#777777"/>
<circle cx="608.7499999999998" cy="250.55178452832791" r="3" fill="#777777"/>
<circle cx="770.0" cy="279.1624324622743" r="3" fill="#777777"/>
<text x="820" y="161" font-size="13" text-anchor="start">all-NS R=8</text>
<polyline points="125.000,190.681 286.250,202.341 447.500,223.572 608.750,250.552 770.000,279.162" fill="none" stroke="#d77a13" stroke-width="2"/>
<circle cx="125.0" cy="190.68122817807904" r="3" fill="#d77a13"/>
<circle cx="286.2500000000001" cy="202.34133381938278" r="3" fill="#d77a13"/>
<circle cx="447.4999999999998" cy="223.57158395893467" r="3" fill="#d77a13"/>
<circle cx="608.7499999999998" cy="250.5517243451373" r="3" fill="#d77a13"/>
<circle cx="770.0" cy="279.1623950513632" r="3" fill="#d77a13"/>
<text x="820" y="187" font-size="13" text-anchor="start">all-NS R=12</text>
<polyline points="125.000,190.681 286.250,202.341 447.500,223.572 608.750,250.552 770.000,279.162" fill="none" stroke="#176dad" stroke-width="2" stroke-dasharray="7 4"/>
<circle cx="125.0" cy="190.68122818663568" r="3" fill="#176dad"/>
<circle cx="286.2500000000001" cy="202.3413338076727" r="3" fill="#176dad"/>
<circle cx="447.4999999999998" cy="223.57158400665355" r="3" fill="#176dad"/>
<circle cx="608.7499999999998" cy="250.55172466566023" r="3" fill="#176dad"/>
<circle cx="770.0" cy="279.16239598283056" r="3" fill="#176dad"/>
<text x="820" y="213" font-size="13" text-anchor="start">all-NS R=16</text>
<text x="447.5" y="353" font-size="14" text-anchor="middle">t = Re Omega_12 (source marking)</text>
<text x="125" y="382" font-size="17" text-anchor="start">Q_NS RR / Q_NS NS NS</text>
<path d="M 125 595.0 h 645" stroke="#e2e5e9"/>
<text x="113" y="600.0" font-size="12" text-anchor="end">0.8541</text>
<path d="M 125 546.25 h 645" stroke="#e2e5e9"/>
<text x="113" y="551.25" font-size="12" text-anchor="end">0.9666</text>
<path d="M 125 497.5 h 645" stroke="#e2e5e9"/>
<text x="113" y="502.5" font-size="12" text-anchor="end">1.079</text>
<path d="M 125 448.75 h 645" stroke="#e2e5e9"/>
<text x="113" y="453.75" font-size="12" text-anchor="end">1.191</text>
<path d="M 125 400.0 h 645" stroke="#e2e5e9"/>
<text x="113" y="405.0" font-size="12" text-anchor="end">1.304</text>
<text x="125.0" y="616" font-size="12" text-anchor="middle">0.52</text>
<text x="286.2500000000001" y="616" font-size="12" text-anchor="middle">0.56</text>
<text x="447.4999999999998" y="616" font-size="12" text-anchor="middle">0.60</text>
<text x="608.7499999999998" y="616" font-size="12" text-anchor="middle">0.64</text>
<text x="770.0" y="616" font-size="12" text-anchor="middle">0.68</text>
<polyline points="125.000,416.250 286.250,497.140 447.500,543.955 608.750,568.618 770.000,578.750" fill="none" stroke="#777777" stroke-width="2"/>
<circle cx="125.0" cy="416.2500992198833" r="3" fill="#777777"/>
<circle cx="286.2500000000001" cy="497.1396956916921" r="3" fill="#777777"/>
<circle cx="447.4999999999998" cy="543.9553022728267" r="3" fill="#777777"/>
<circle cx="608.7499999999998" cy="568.6177895187874" r="3" fill="#777777"/>
<circle cx="770.0" cy="578.7498925483402" r="3" fill="#777777"/>
<text x="820" y="420" font-size="13" text-anchor="start">all-NS R=8</text>
<polyline points="125.000,416.250 286.250,497.140 447.500,543.955 608.750,568.618 770.000,578.750" fill="none" stroke="#d77a13" stroke-width="2" stroke-dasharray="7 4"/>
<circle cx="125.0" cy="416.25000002106106" r="3" fill="#d77a13"/>
<circle cx="286.2500000000001" cy="497.1396892333571" r="3" fill="#d77a13"/>
<circle cx="447.4999999999998" cy="543.9553959976289" r="3" fill="#d77a13"/>
<circle cx="608.7499999999998" cy="568.6179358077411" r="3" fill="#d77a13"/>
<circle cx="770.0" cy="578.75" r="3" fill="#d77a13"/>
<text x="820" y="446" font-size="13" text-anchor="start">all-NS R=12</text>
<polyline points="125.000,416.250 286.250,497.140 447.500,543.955 608.750,568.618 770.000,578.750" fill="none" stroke="#176dad" stroke-width="2"/>
<circle cx="125.0" cy="416.24999999999994" r="3" fill="#176dad"/>
<circle cx="286.2500000000001" cy="497.1396892592894" r="3" fill="#176dad"/>
<circle cx="447.4999999999998" cy="543.955395891905" r="3" fill="#176dad"/>
<circle cx="608.7499999999998" cy="568.6179350286374" r="3" fill="#176dad"/>
<circle cx="770.0" cy="578.7499973246391" r="3" fill="#176dad"/>
<text x="820" y="472" font-size="13" text-anchor="start">all-NS R=16</text>
<text x="447.5" y="638" font-size="14" text-anchor="middle">t = Re Omega_12 (source marking)</text>
<text x="125" y="667" font-size="17" text-anchor="start">All-NS fractional change relative to R=8</text>
<path d="M 125 880.0 h 645" stroke="#e2e5e9"/>
<text x="113" y="885.0" font-size="12" text-anchor="end">-2.357e-07</text>
<path d="M 125 831.25 h 645" stroke="#e2e5e9"/>
<text x="113" y="836.25" font-size="12" text-anchor="end">-7.081e-08</text>
<path d="M 125 782.5 h 645" stroke="#e2e5e9"/>
<text x="113" y="787.5" font-size="12" text-anchor="end">9.404e-08</text>
<path d="M 125 733.75 h 645" stroke="#e2e5e9"/>
<text x="113" y="738.75" font-size="12" text-anchor="end">2.589e-07</text>
<path d="M 125 685.0 h 645" stroke="#e2e5e9"/>
<text x="113" y="690.0" font-size="12" text-anchor="end">4.237e-07</text>
<text x="125.0" y="901" font-size="12" text-anchor="middle">0.52</text>
<text x="286.2500000000001" y="901" font-size="12" text-anchor="middle">0.56</text>
<text x="447.4999999999998" y="901" font-size="12" text-anchor="middle">0.60</text>
<text x="608.7499999999998" y="901" font-size="12" text-anchor="middle">0.64</text>
<text x="770.0" y="901" font-size="12" text-anchor="middle">0.68</text>
<polyline points="125.000,810.309 286.250,810.309 447.500,810.309 608.750,810.309 770.000,810.309" fill="none" stroke="#777777" stroke-width="2"/>
<circle cx="125.0" cy="810.3089732877861" r="3" fill="#777777"/>
<circle cx="286.2500000000001" cy="810.3089732877861" r="3" fill="#777777"/>
<circle cx="447.4999999999998" cy="810.3089732877861" r="3" fill="#777777"/>
<circle cx="608.7499999999998" cy="810.3089732877861" r="3" fill="#777777"/>
<circle cx="770.0" cy="810.3089732877861" r="3" fill="#777777"/>
<text x="820" y="705" font-size="13" text-anchor="start">all-NS R=8</text>
<polyline points="125.000,863.739 286.250,814.389 447.500,744.527 608.750,701.250 770.000,728.104" fill="none" stroke="#d77a13" stroke-width="2" stroke-dasharray="7 4"/>
<circle cx="125.0" cy="863.7386562335353" r="3" fill="#d77a13"/>
<circle cx="286.2500000000001" cy="814.3885579798304" r="3" fill="#d77a13"/>
<circle cx="447.4999999999998" cy="744.5267433349691" r="3" fill="#d77a13"/>
<circle cx="608.7499999999998" cy="701.25" r="3" fill="#d77a13"/>
<circle cx="770.0" cy="728.103580820977" r="3" fill="#d77a13"/>
<text x="820" y="731" font-size="13" text-anchor="start">all-NS R=12</text>
<polyline points="125.000,863.750 286.250,814.372 447.500,744.601 608.750,701.831 770.000,730.150" fill="none" stroke="#176dad" stroke-width="2"/>
<circle cx="125.0" cy="863.75" r="3" fill="#176dad"/>
<circle cx="286.2500000000001" cy="814.3721772524807" r="3" fill="#176dad"/>
<circle cx="447.4999999999998" cy="744.600947335812" r="3" fill="#176dad"/>
<circle cx="608.7499999999998" cy="701.8308250198849" r="3" fill="#176dad"/>
<circle cx="770.0" cy="730.1503537178064" r="3" fill="#176dad"/>
<text x="820" y="757" font-size="13" text-anchor="start">all-NS R=16</text>
<text x="447.5" y="923" font-size="14" text-anchor="middle">t = Re Omega_12 (source marking)</text>
<text x="90" y="980" font-size="12" text-anchor="start">Same local-frame free normalization, unchanged odd i / sewing sign; no fitted rescaling. Cutoff differences are not error bars.</text>
</g></svg>
